<svg xmlns="http://www.w3.org/2000/svg" version="1.1" xmlns:xlink="http://www.w3.org/1999/xlink" xmlns:svgjs="http://svgjs.dev/svgjs" width="2000" height="570" viewBox="0 0 2000 570"><g transform="matrix(1,0,0,1,-1.2121212121212466,-1.6672833698205523)"><svg viewBox="0 0 396 113" data-background-color="#efefef" preserveAspectRatio="xMidYMid meet" height="570" width="2000" xmlns="http://www.w3.org/2000/svg" xmlns:xlink="http://www.w3.org/1999/xlink"><g id="tight-bounds" transform="matrix(1,0,0,1,0.2400000000000091,0.3305316154205684)"><svg viewBox="0 0 395.52 112.33893676915888" height="112.33893676915888" width="395.52"><g><svg viewBox="0 0 619.0344368533999 175.82339820895524" height="112.33893676915888" width="395.52"><g transform="matrix(1,0,0,1,223.51443685339999,54.331982105059126)"><svg viewBox="0 0 395.52 67.15943399883699" height="67.15943399883699" width="395.52"><g id="textblocktransform"><svg viewBox="0 0 395.52 67.15943399883699" height="67.15943399883699" width="395.52" id="textblock"><g><svg viewBox="0 0 395.52 67.15943399883699" height="67.15943399883699" width="395.52"><g transform="matrix(1,0,0,1,0,0)"><svg width="395.52" viewBox="2.25 -34.86 251.87 42.769999999999996" height="67.15943399883699" data-palette-color="#d94e28"><path d="M16.92-3.13L16.92 0 2.25 0 2.25-34.86 16.92-34.86 16.92-31.74 5.64-31.74 5.64-19.14 16.16-19.14 16.16-16.02 5.64-16.02 5.64-3.13 16.92-3.13ZM23.8-6.2L21.51 0 18.45 0 23.19-12.3 18.6-23.75 21.63-23.75 23.48-18.7 25.49-13.77 26.61-13.77 28.73-18.7 30.66-23.75 33.66-23.75 28.95-12.26 33.79 0 30.76 0 28.44-6.2 26.61-11.13 25.56-11.13 23.8-6.2ZM39.84-2.25L39.84 7.91 36.69 7.91 36.69-23.75 39.84-23.75 39.84-21.53 40.52-21.53Q41.35-22.83 42.51-23.45 43.67-24.07 45.7-24.07L45.7-24.07Q48.48-24.07 49.81-22.86 51.14-21.66 51.22-18.82L51.22-18.82Q51.29-17.58 51.31-15.81 51.34-14.04 51.34-12.07 51.34-10.11 51.31-8.25 51.29-6.4 51.22-4.96L51.22-4.96Q51.14-2.15 49.75-0.93 48.36 0.29 45.58 0.29L45.58 0.29Q43.75 0.29 42.57-0.31 41.4-0.9 40.52-2.25L40.52-2.25 39.84-2.25ZM44.7-2.37L44.7-2.37Q47.99-2.37 48.09-4.69L48.09-4.69Q48.29-8.47 48.25-12.16 48.21-15.84 48.09-19.09L48.09-19.09Q48.04-20.31 47.31-20.86 46.58-21.41 44.84-21.41L44.84-21.41Q41.11-21.41 39.84-19.19L39.84-19.19 39.84-4.59Q40.5-3.39 41.63-2.88 42.77-2.37 44.7-2.37ZM62.88 0.29L62.88 0.29Q58.85 0.29 57.13-0.98 55.41-2.25 55.29-5.13L55.29-5.13Q55.19-6.93 55.16-9.38 55.12-11.82 55.16-14.28 55.19-16.75 55.29-18.58L55.29-18.58Q55.41-21.53 57.18-22.8 58.95-24.07 62.88-24.07L62.88-24.07Q66.59-24.07 68.25-22.83 69.91-21.58 70.09-18.73L70.09-18.73Q70.13-17.87 70.18-15.75 70.23-13.62 70.04-11.23L70.04-11.23 58.34-11.23Q58.34-9.69 58.37-8.11 58.39-6.52 58.46-4.81L58.46-4.81Q58.49-3.47 59.49-2.95 60.49-2.44 62.79-2.44L62.79-2.44Q65.06-2.44 65.98-2.95 66.91-3.47 67.01-4.81L67.01-4.81Q67.08-6.15 67.01-8.47L67.01-8.47 70.04-8.47Q70.16-7.76 70.15-6.82 70.13-5.88 70.09-5.13L70.09-5.13Q69.91-2.25 68.34-0.98 66.76 0.29 62.88 0.29ZM58.34-13.82L58.34-13.82 67.06-13.82Q67.11-15.48 67.11-16.99 67.11-18.51 67.01-19.07L67.01-19.07Q66.91-20.29 65.96-20.81 65.01-21.34 62.88-21.34L62.88-21.34Q60.51-21.34 59.5-20.81 58.49-20.29 58.46-19.07L58.46-19.07Q58.39-17.65 58.35-16.36 58.32-15.06 58.34-13.82ZM77.33-19.19L77.33 0 74.18 0 74.18-23.75 77.33-23.75 77.33-21.53 78.09-21.53Q78.85-22.75 80.08-23.41 81.31-24.07 83.19-24.07L83.19-24.07Q85.95-24.07 87.29-22.86 88.64-21.66 88.64-18.82L88.64-18.82 88.64 0 85.51 0 85.51-19.09Q85.51-20.31 84.74-20.86 83.97-21.41 82.27-21.41L82.27-21.41Q80.56-21.41 79.26-20.83 77.97-20.24 77.33-19.19L77.33-19.19ZM99.62 0.29L99.62 0.29Q95.69 0.29 94.16-0.98 92.64-2.25 92.52-5.13L92.52-5.13Q92.47-5.88 92.46-6.82 92.44-7.76 92.54-8.47L92.54-8.47 95.4-8.47Q95.35-7.35 95.36-6.41 95.37-5.47 95.4-4.81L95.4-4.81Q95.42-3.47 96.34-2.95 97.25-2.44 99.62-2.44L99.62-2.44Q102.04-2.44 103.03-2.95 104.02-3.47 104.09-4.81L104.09-4.81Q104.16-5.64 104.19-6.04 104.21-6.45 104.19-7.2L104.19-7.2Q104.11-8.45 103.53-9.13 102.94-9.81 100.99-10.11L100.99-10.11 98.13-10.77Q95.93-11.23 94.74-11.94 93.54-12.65 93.05-13.78 92.57-14.92 92.47-16.65L92.47-16.65Q92.39-17.53 92.59-18.58L92.59-18.58Q92.64-21.53 94.19-22.8 95.74-24.07 99.84-24.07L99.84-24.07Q103.77-24.07 105.3-22.83 106.82-21.58 106.97-18.73L106.97-18.73Q106.97-17.99 106.96-17.05 106.95-16.11 106.87-15.41L106.87-15.41 103.92-15.41Q104.04-16.26 104.03-17.36 104.02-18.46 103.97-19.07L103.97-19.07Q103.94-20.36 103.08-20.85 102.21-21.34 99.84-21.34L99.84-21.34Q97.45-21.34 96.58-20.85 95.72-20.36 95.62-19.07L95.62-19.07Q95.59-18.46 95.54-18.05 95.5-17.65 95.52-16.94L95.52-16.94Q95.59-16.09 95.78-15.43 95.96-14.77 96.61-14.34 97.25-13.92 98.72-13.7L98.72-13.7 101.45-13.13Q104.43-12.52 105.8-11.24 107.17-9.96 107.17-7.37L107.17-7.37Q107.17-6.84 107.15-6.23 107.14-5.62 107.09-5.05L107.09-5.05Q106.92-2.2 105.3-0.95 103.67 0.29 99.62 0.29ZM118.37 0.29L118.37 0.29Q114.34 0.29 112.62-0.98 110.9-2.25 110.78-5.13L110.78-5.13Q110.68-6.93 110.64-9.38 110.61-11.82 110.64-14.28 110.68-16.75 110.78-18.58L110.78-18.58Q110.9-21.53 112.67-22.8 114.44-24.07 118.37-24.07L118.37-24.07Q122.08-24.07 123.74-22.83 125.4-21.58 125.57-18.73L125.57-18.73Q125.62-17.87 125.67-15.75 125.72-13.62 125.52-11.23L125.52-11.23 113.83-11.23Q113.83-9.69 113.85-8.11 113.88-6.52 113.95-4.81L113.95-4.81Q113.97-3.47 114.98-2.95 115.98-2.44 118.27-2.44L118.27-2.44Q120.54-2.44 121.47-2.95 122.4-3.47 122.49-4.81L122.49-4.81Q122.57-6.15 122.49-8.47L122.49-8.47 125.52-8.47Q125.64-7.76 125.63-6.82 125.62-5.88 125.57-5.13L125.57-5.13Q125.4-2.25 123.83-0.98 122.25 0.29 118.37 0.29ZM113.83-13.82L113.83-13.82 122.54-13.82Q122.59-15.48 122.59-16.99 122.59-18.51 122.49-19.07L122.49-19.07Q122.4-20.29 121.44-20.81 120.49-21.34 118.37-21.34L118.37-21.34Q116-21.34 114.99-20.81 113.97-20.29 113.95-19.07L113.95-19.07Q113.88-17.65 113.84-16.36 113.8-15.06 113.83-13.82ZM146.95 0.29L146.95 0.29Q143.14 0.29 141.81-0.98 140.48-2.25 140.48-5.13L140.48-5.13 140.48-21.02 138.14-21.02 138.14-23.75 140.56-23.75 140.56-30.49 143.66-30.49 143.66-23.75 149.03-23.75 149.03-21.02 143.63-21.02 143.63-4.79Q143.63-3.44 144.19-2.93 144.76-2.42 147.03-2.42L147.03-2.42Q147.95-2.42 148.45-2.45 148.95-2.49 149.61-2.51L149.61-2.51 149.61 0.1Q149.03 0.2 148.34 0.24 147.66 0.29 146.95 0.29ZM155.37-19.19L155.37 0 152.22 0 152.22-23.75 155.37-23.75 155.37-21.53 156.06-21.53Q156.69-22.75 157.74-23.41 158.79-24.07 160.35-24.07L160.35-24.07Q162.7-24.07 163.83-22.84 164.97-21.61 164.97-18.58L164.97-18.58Q164.97-17.92 164.92-17.02 164.87-16.11 164.77-15.41L164.77-15.41 161.75-15.41Q161.79-15.65 161.81-16.26 161.82-16.87 161.83-17.48 161.84-18.09 161.84-18.31L161.84-18.31Q161.84-20.12 161.23-20.76 160.62-21.41 159.28-21.41L159.28-21.41Q156.42-21.41 155.37-19.19L155.37-19.19ZM174.22 0.27L174.22 0.27Q171.24 0.27 169.81-0.9 168.38-2.08 168.14-4.57L168.14-4.57Q168.11-5.05 168.08-5.54 168.04-6.03 168.09-6.49L168.09-6.49Q168.26-8.67 169.46-10.14 170.65-11.62 174-12.84L174-12.84Q175.37-13.33 176.88-13.72 178.39-14.11 179.88-14.48L179.88-14.48 179.88-18.99Q179.88-20.19 178.98-20.76 178.08-21.34 175.83-21.34L175.83-21.34Q173.88-21.34 172.86-20.85 171.85-20.36 171.75-19.07L171.75-19.07Q171.7-18.46 171.7-17.32 171.7-16.19 171.75-15.41L171.75-15.41 168.7-15.41Q168.65-16.02 168.6-16.99 168.55-17.97 168.63-18.73L168.63-18.73Q168.75-21.56 170.47-22.81 172.19-24.07 175.95-24.07L175.95-24.07Q179.88-24.07 181.41-22.71 182.93-21.34 182.96-18.21L182.96-18.21 182.96 0 179.88 0 179.88-2.25 179.2-2.25Q178.59-1.03 177.45-0.38 176.32 0.27 174.22 0.27ZM175-2.37L175-2.37Q178.52-2.37 179.86-4.47L179.86-4.47 179.86-11.87Q178.69-11.62 177.45-11.29 176.22-10.96 174.56-10.4L174.56-10.4Q172.58-9.67 171.92-8.72 171.26-7.76 171.17-6.49L171.17-6.49Q171.19-6.13 171.2-5.7 171.22-5.27 171.26-4.81L171.26-4.81Q171.43-3.64 172.44-3 173.44-2.37 175-2.37ZM201.9-15.41L201.9-15.41 198.83-15.41Q198.92-16.26 198.91-17.36 198.9-18.46 198.9-19.07L198.9-19.07Q198.87-20.36 197.89-20.85 196.9-21.34 194.65-21.34L194.65-21.34Q192.36-21.34 191.38-20.85 190.4-20.36 190.38-19.07L190.38-19.07Q190.21-15.23 190.21-11.93 190.21-8.62 190.38-4.81L190.38-4.81Q190.4-3.47 191.38-2.95 192.36-2.44 194.63-2.44L194.63-2.44Q196.87-2.44 197.87-2.95 198.87-3.47 198.9-4.81L198.9-4.81Q198.9-5.47 198.91-6.41 198.92-7.35 198.83-8.47L198.83-8.47 201.9-8.47Q202.02-7.76 202.01-6.82 202-5.88 201.95-5.13L201.95-5.13Q201.8-2.25 200.16-0.98 198.51 0.29 194.63 0.29L194.63 0.29Q190.72 0.29 189.02-0.98 187.33-2.25 187.2-5.13L187.2-5.13Q187.11-6.93 187.07-9.38 187.03-11.82 187.07-14.28 187.11-16.75 187.2-18.58L187.2-18.58Q187.33-21.53 189.05-22.8 190.77-24.07 194.65-24.07L194.65-24.07Q198.51-24.07 200.2-22.83 201.9-21.58 201.95-18.73L201.95-18.73Q202-17.99 202.01-17.05 202.02-16.11 201.9-15.41ZM208.95-7.89L208.95 0 205.9 0 205.9-31.69 208.91-31.69 208.91-23.88 208.64-13.53 209.47-13.53 211.84-18.14 215.5-23.75 218.82-23.75 212.76-14.18 220.23 0 216.94 0 210.91-10.5 208.95-7.89ZM230 0.29L230 0.29Q225.97 0.29 224.25-0.98 222.53-2.25 222.4-5.13L222.4-5.13Q222.31-6.93 222.27-9.38 222.23-11.82 222.27-14.28 222.31-16.75 222.4-18.58L222.4-18.58Q222.53-21.53 224.3-22.8 226.07-24.07 230-24.07L230-24.07Q233.71-24.07 235.37-22.83 237.03-21.58 237.2-18.73L237.2-18.73Q237.25-17.87 237.3-15.75 237.35-13.62 237.15-11.23L237.15-11.23 225.46-11.23Q225.46-9.69 225.48-8.11 225.5-6.52 225.58-4.81L225.58-4.81Q225.6-3.47 226.6-2.95 227.6-2.44 229.9-2.44L229.9-2.44Q232.17-2.44 233.1-2.95 234.03-3.47 234.12-4.81L234.12-4.81Q234.2-6.15 234.12-8.47L234.12-8.47 237.15-8.47Q237.27-7.76 237.26-6.82 237.25-5.88 237.2-5.13L237.2-5.13Q237.03-2.25 235.45-0.98 233.88 0.29 230 0.29ZM225.46-13.82L225.46-13.82 234.17-13.82Q234.22-15.48 234.22-16.99 234.22-18.51 234.12-19.07L234.12-19.07Q234.03-20.29 233.07-20.81 232.12-21.34 230-21.34L230-21.34Q227.63-21.34 226.62-20.81 225.6-20.29 225.58-19.07L225.58-19.07Q225.5-17.65 225.47-16.36 225.43-15.06 225.46-13.82ZM244.52-19.19L244.52 0 241.37 0 241.37-23.75 244.52-23.75 244.52-21.53 245.2-21.53Q245.84-22.75 246.89-23.41 247.94-24.07 249.5-24.07L249.5-24.07Q251.84-24.07 252.98-22.84 254.12-21.61 254.12-18.58L254.12-18.58Q254.12-17.92 254.07-17.02 254.02-16.11 253.92-15.41L253.92-15.41 250.89-15.41Q250.94-15.65 250.95-16.26 250.97-16.87 250.98-17.48 250.99-18.09 250.99-18.31L250.99-18.31Q250.99-20.12 250.38-20.76 249.77-21.41 248.43-21.41L248.43-21.41Q245.57-21.41 244.52-19.19L244.52-19.19Z" opacity="1" transform="matrix(1,0,0,1,0,0)" fill="#d94e28" class="wordmark-text-0" data-fill-palette-color="primary" id="text-0"></path></svg></g></svg></g></svg></g></svg></g><g><svg viewBox="0 0 207.65970631269053 175.82339820895524" height="175.82339820895524" width="207.65970631269053"><g><svg xmlns="http://www.w3.org/2000/svg" xmlns:xlink="http://www.w3.org/1999/xlink" version="1.1" x="0" y="0" viewBox="20 39.86059815815755 260 220.13940184184244" enable-background="new 0 0 300 300" xml:space="preserve" height="175.82339820895524" width="207.65970631269053" class="icon-icon-0" data-fill-palette-color="accent" id="icon-0"><path d="M275 141H268V100C268 97.2 265.8 95 263 95H232V67.4C232 64.6 230.2 62 227.5 62H215V45C215 43.4 214.3 41.9 213 41S210.1 39.6 208.6 40L133.8 62H60.8C58 62 55.9 64.6 55.9 67.4V85.8L25.1 95H25C22.4 95 20.2 97.1 20 99.7V255C20 257.8 22.2 260 25 260H263C265.8 260 268 257.8 268 255V211H275C277.8 211 280 208.9 280 206.2V146.2C280 143.4 277.8 141 275 141M205 51.7V62H169zM222 72V95H66V72zM258 250H30V105H59.1C59.7 105.2 60.3 105 60.9 105H227.5C228.1 105 228.7 105.2 229.3 105H258V141H170.3C168.2 141 166.3 142.4 165.6 144.5L154.6 177.1C154.2 178.2 154.3 179.5 154.7 180.6L165.7 208C166.5 209.9 168.3 211.1 170.3 211.1H258zM270 201H264.2C263.8 201 263.4 200.8 263 200.8S262.2 201 261.8 201H173.6L164.5 178.4 173.8 151H270zM195 196.2C206.1 196.2 215 187.2 215 176.2 215 165.1 206 156.2 195 156.2S175 165.2 175 176.2 184 196.2 195 196.2M195 166.1C200.5 166.1 205 170.6 205 176.1S200.5 186.1 195 186.1 185 181.6 185 176.1 189.5 166.1 195 166.1" fill="#f9744c" data-fill-palette-color="accent"></path></svg></g></svg></g></svg></g><defs></defs></svg><rect width="395.52" height="112.33893676915888" fill="none" stroke="none" visibility="hidden"></rect></g></svg></g></svg>